/* XPM */
static char *etherape[] = {
/* columns rows colors chars-per-pixel */
"32 32 139 2",
"   c #000000",
".  c #010000",
"X  c #010101",
"o  c #020101",
"O  c #020201",
"+  c #020202",
"@  c #030202",
"#  c #040302",
"$  c #040303",
"%  c #050303",
"&  c #060504",
"*  c #070504",
"=  c #070605",
"-  c #080605",
";  c #090706",
":  c #0A0706",
">  c #0C0907",
",  c #0D0A08",
"<  c #0E0B09",
"1  c #0F0C0A",
"2  c #100E0B",
"3  c #120E0C",
"4  c #130F0C",
"5  c #13100C",
"6  c #16110E",
"7  c #16120E",
"8  c #17120F",
"9  c #18130F",
"0  c #191410",
"q  c #1A1511",
"w  c #1D1712",
"e  c #211A15",
"r  c #221B16",
"t  c #271F19",
"y  c #281F18",
"u  c #29211B",
"i  c #2A221C",
"p  c #2E251E",
"a  c #2E251F",
"s  c #30261F",
"d  c #31271F",
"f  c #322820",
"g  c #322821",
"h  c #372B24",
"j  c #3C2F27",
"k  c #3C3027",
"l  c #3E3129",
"z  c #40332A",
"x  c #41342A",
"c  c #46382D",
"v  c #483A2F",
"b  c #4F3F34",
"n  c #524135",
"m  c #534236",
"M  c #544337",
"N  c #584639",
"B  c #59473A",
"V  c #5A473A",
"C  c #5B493C",
"Z  c #5D4B3D",
"A  c #5F4C3E",
"S  c #604D3F",
"D  c #655042",
"F  c #665242",
"G  c #695445",
"H  c #6A5546",
"J  c #6D5848",
"K  c #6E5848",
"L  c #6F5848",
"P  c #6F5949",
"I  c #705949",
"U  c #715A4A",
"Y  c #775F4D",
"T  c #79604F",
"R  c #7A614F",
"E  c #7A6250",
"W  c #7B6250",
"Q  c #7C6452",
"!  c #7D6452",
"~  c #7E6553",
"^  c #806754",
"/  c #826855",
"(  c #836955",
")  c #836856",
"_  c #886D59",
"`  c #8A6E5A",
"'  c #8B6F5B",
"]  c #8C6F5B",
"[  c #8C705B",
"{  c #927560",
"}  c #937560",
"|  c #947661",
" . c #967862",
".. c #977963",
"X. c #987963",
"o. c #987A64",
"O. c #9A7B65",
"+. c #9B7C65",
"@. c #9C7D66",
"#. c #9D7E67",
"$. c #9E7E67",
"%. c #9F7F68",
"&. c #A08069",
"*. c #A2816A",
"=. c #A3826B",
"-. c #A4836B",
";. c #A6846C",
":. c #A6856D",
">. c #A9876E",
",. c #A9876F",
"<. c #AA886F",
"1. c #AC8970",
"2. c #AC8A71",
"3. c #AD8B71",
"4. c #AD8B72",
"5. c #AE8B72",
"6. c #AF8C73",
"7. c #B18D74",
"8. c #B18E74",
"9. c #B49076",
"0. c #B59176",
"q. c #B69277",
"w. c #B79277",
"e. c #B79378",
"r. c #B89379",
"t. c #BA947A",
"y. c #BB957A",
"u. c #BB967A",
"i. c #BC977B",
"p. c #BF997D",
"a. c #C19A7E",
"s. c #C19B7F",
"d. c #C39C80",
"f. c #C59D81",
"g. c #E0B392",
"h. c #FFFFDE",
"j. c #FFFFE2",
"k. c gray100",
"l. c None",
/* pixels */
"l.l.l.l.l.l.l.l.l.l.l.      l.l.l.l.l.l.    l.l.l.l.l.l.l.l.l.l.",
"l.l.l.l.l.l.l.l.l.l.    : <     l.l.g.x 0 :     l.l.l.l.l.l.l.l.",
"l.l.l.l.l.l.l.l.l.      B P r   l.l.a.$.W C <   l.l.l.l.l.l.l.l.",
"l.l.l.l.l.l.l.l.l.      [ a.) P ( l.r.r.*.@.9   l.l.l.l.l.l.l.l.",
"l.l.l.l.l.l.l.l.        h.D -.8.%.l.G D } s       l.l.l.l.l.l.l.",
"l.l.l.l.l.l.l.          l.l.m P ! l.l.l.l.        l.l.l.l.l.l.l.",
"l.l.l.l.l.l.l.        l.l.          l.l.l.        l.l.l.l.l.l.l.",
"l.l.l.l.l.l.l.        l.l.    p ! (   l.l.        l.l.l.l.l.l.l.",
"l.l.l.l.l.l.          l.    > P ` 1. .( l.        l.l.l.l.l.l.l.",
"l.l.l.l.l.l.          l.  = f p M r.e.*.l.          l.l.l.l.l.l.",
"l.l.l.l.l.l.              = c t 0 E ` P             l.l.l.l.l.l.",
"l.l.l.l.l.l.l.              = =   1 0             l.l.l.l.l.l.l.",
"l.l.l.l.l.l.l.l.                                l.l.l.l.l.l.l.l.",
"l.l.l.l.l.l.l.l.l.                            l.l.l.l.l.l.l.l.l.",
"l.l.l.l.l.l.l.l.l.l.        7 i u l f -     l.l.l.l.l.l.l.l.l.l.",
"l.l.l.l.l.l.l.l.l.l.      # C @.>.4.$.x     l.l.l.l.l.l.l.l.l.l.",
"l.l.l.l.l.l.l.l.l.l.l.      r N 2.;.b 7     l.l.l.l.l.l.l.l.l.l.",
"l.l.l.l.l.l.l.l.l.l.l.        7  .' <     l.l.l.l.l.l.l.l.l.l.l.",
"l.l.l.l.l.l.        l.l.        m B       l.l.l.l.l.l.l.l.l.l.l.",
"l.l.l.l.l.l.                    < 1     l.l.l.    l.l.l.l.l.l.l.",
"l.l.l.l.l.l.                                          l.l.l.l.l.",
"l.l.l.l.l.l.                                          l.l.l.l.l.",
"l.l.l.l.l.l.l.                                        l.l.l.l.l.",
"l.l.l.l.l.l.l.                                      l.l.l.l.l.l.",
"l.l.l.l.l.l.l.                                      l.l.l.l.l.l.",
"l.l.l.l.l.l.l.l.                                l.l.l.l.l.l.l.l.",
"l.l.l.l.l.l.l.l.          l.    # %             l.l.l.l.l.l.l.l.",
"l.l.l.l.l.l.-.l.#     4 s l.l.l.*.J 9       l.l.l.l.l.l.l.l.l.l.",
"l.l.l.l.l.l.l.w   > h o.6.  l.l.X.>.| k     l.l.l.l.l.l.l.l.l.l.",
"l.l.l.l.l.  w.=.H ! o.2.2.l.l.l.  A q.} J X.i.l.l.l.l.l.l.l.l.l.",
"l.l.l.l.l.  ;.f.a.w.q.    l.l.l.l.l.y f.a.r.*.l.l.l.l.l.l.l.l.l.",
"l.l.l.l.l.l.l.l.l.l.l.l.l.l.l.l.l.l.l.l.l.l.l.l.l.l.l.l.l.l.l.l."
};
